<mxfile host="app.diagrams.net" modified="2023-06-23T17:22:37.009Z" agent="Mozilla/5.0 (X11; Linux x86_64; rv:109.0) Gecko/20100101 Firefox/114.0" etag="JaWv-fveJdMi0nsRx18O" version="21.5.0" type="device">
  <diagram name="PÃ¡gina-1" id="7Pk58rlRaSgVMtp1YSLq">
    <mxGraphModel dx="954" dy="594" grid="1" gridSize="10" guides="1" tooltips="1" connect="1" arrows="1" fold="1" page="1" pageScale="1" pageWidth="827" pageHeight="1169" math="0" shadow="0">
      <root>
        <mxCell id="0" />
        <mxCell id="1" parent="0" />
        <mxCell id="hCtdPsWrzCSMVxImVk62-1" value="Cliente" style="shape=umlActor;verticalLabelPosition=bottom;verticalAlign=top;html=1;outlineConnect=0;" vertex="1" parent="1">
          <mxGeometry x="5" y="258.5" width="70" height="99.5" as="geometry" />
        </mxCell>
        <mxCell id="hCtdPsWrzCSMVxImVk62-2" value="CRUD CLIENTE" style="ellipse;whiteSpace=wrap;html=1;" vertex="1" parent="1">
          <mxGeometry x="320" y="314.5" width="120" height="50" as="geometry" />
        </mxCell>
        <mxCell id="hCtdPsWrzCSMVxImVk62-3" value="login" style="ellipse;whiteSpace=wrap;html=1;" vertex="1" parent="1">
          <mxGeometry x="320" y="475" width="120" height="50" as="geometry" />
        </mxCell>
        <mxCell id="hCtdPsWrzCSMVxImVk62-4" value="fazer pedido" style="ellipse;whiteSpace=wrap;html=1;" vertex="1" parent="1">
          <mxGeometry x="320" y="638" width="120" height="50" as="geometry" />
        </mxCell>
        <mxCell id="hCtdPsWrzCSMVxImVk62-5" value="ver pedido" style="ellipse;whiteSpace=wrap;html=1;" vertex="1" parent="1">
          <mxGeometry x="320" y="716" width="120" height="50" as="geometry" />
        </mxCell>
        <mxCell id="hCtdPsWrzCSMVxImVk62-6" value="ver cardapio" style="ellipse;whiteSpace=wrap;html=1;" vertex="1" parent="1">
          <mxGeometry x="320" y="556" width="120" height="50" as="geometry" />
        </mxCell>
        <mxCell id="hCtdPsWrzCSMVxImVk62-7" value="CRUD usuario" style="ellipse;whiteSpace=wrap;html=1;" vertex="1" parent="1">
          <mxGeometry x="320" y="70" width="120" height="60" as="geometry" />
        </mxCell>
        <mxCell id="hCtdPsWrzCSMVxImVk62-8" value="CRUD cardapio" style="ellipse;whiteSpace=wrap;html=1;" vertex="1" parent="1">
          <mxGeometry x="320" y="150.5" width="120" height="60" as="geometry" />
        </mxCell>
        <mxCell id="hCtdPsWrzCSMVxImVk62-10" value="Admin" style="shape=umlActor;verticalLabelPosition=bottom;verticalAlign=top;html=1;outlineConnect=0;" vertex="1" parent="1">
          <mxGeometry x="686" y="251" width="70" height="110" as="geometry" />
        </mxCell>
        <mxCell id="hCtdPsWrzCSMVxImVk62-11" value="CRUD produto" style="ellipse;whiteSpace=wrap;html=1;" vertex="1" parent="1">
          <mxGeometry x="320" y="232.75" width="120" height="55" as="geometry" />
        </mxCell>
        <mxCell id="hCtdPsWrzCSMVxImVk62-15" value="" style="endArrow=classic;html=1;rounded=0;exitX=0;exitY=0.3333333333333333;exitDx=0;exitDy=0;exitPerimeter=0;entryX=1;entryY=0.5;entryDx=0;entryDy=0;" edge="1" parent="1" source="hCtdPsWrzCSMVxImVk62-10" target="hCtdPsWrzCSMVxImVk62-7">
          <mxGeometry width="50" height="50" relative="1" as="geometry">
            <mxPoint x="390" y="310" as="sourcePoint" />
            <mxPoint x="440" y="260" as="targetPoint" />
          </mxGeometry>
        </mxCell>
        <mxCell id="hCtdPsWrzCSMVxImVk62-16" value="" style="endArrow=classic;html=1;rounded=0;entryX=1;entryY=0.5;entryDx=0;entryDy=0;exitX=0;exitY=0.3333333333333333;exitDx=0;exitDy=0;exitPerimeter=0;" edge="1" parent="1" source="hCtdPsWrzCSMVxImVk62-10" target="hCtdPsWrzCSMVxImVk62-8">
          <mxGeometry width="50" height="50" relative="1" as="geometry">
            <mxPoint x="630" y="150" as="sourcePoint" />
            <mxPoint x="530" y="131" as="targetPoint" />
          </mxGeometry>
        </mxCell>
        <mxCell id="hCtdPsWrzCSMVxImVk62-17" value="" style="endArrow=classic;html=1;rounded=0;exitX=0;exitY=0.3333333333333333;exitDx=0;exitDy=0;exitPerimeter=0;entryX=1;entryY=0.5;entryDx=0;entryDy=0;" edge="1" parent="1" source="hCtdPsWrzCSMVxImVk62-10" target="hCtdPsWrzCSMVxImVk62-11">
          <mxGeometry width="50" height="50" relative="1" as="geometry">
            <mxPoint x="650" y="212" as="sourcePoint" />
            <mxPoint x="540" y="141" as="targetPoint" />
          </mxGeometry>
        </mxCell>
        <mxCell id="hCtdPsWrzCSMVxImVk62-18" value="" style="endArrow=classic;html=1;rounded=0;exitX=1;exitY=0.3333333333333333;exitDx=0;exitDy=0;exitPerimeter=0;entryX=0;entryY=0.5;entryDx=0;entryDy=0;" edge="1" parent="1" source="hCtdPsWrzCSMVxImVk62-1" target="hCtdPsWrzCSMVxImVk62-2">
          <mxGeometry width="50" height="50" relative="1" as="geometry">
            <mxPoint x="180" y="331" as="sourcePoint" />
            <mxPoint x="70" y="260" as="targetPoint" />
          </mxGeometry>
        </mxCell>
        <mxCell id="hCtdPsWrzCSMVxImVk62-19" value="" style="endArrow=classic;html=1;rounded=0;exitX=1;exitY=0.3333333333333333;exitDx=0;exitDy=0;exitPerimeter=0;entryX=0;entryY=0.5;entryDx=0;entryDy=0;" edge="1" parent="1" source="hCtdPsWrzCSMVxImVk62-1" target="hCtdPsWrzCSMVxImVk62-3">
          <mxGeometry width="50" height="50" relative="1" as="geometry">
            <mxPoint x="220" y="265" as="sourcePoint" />
            <mxPoint x="110" y="194" as="targetPoint" />
          </mxGeometry>
        </mxCell>
        <mxCell id="hCtdPsWrzCSMVxImVk62-20" value="" style="endArrow=classic;html=1;rounded=0;exitX=1;exitY=0.3333333333333333;exitDx=0;exitDy=0;exitPerimeter=0;entryX=0;entryY=0.5;entryDx=0;entryDy=0;" edge="1" parent="1" source="hCtdPsWrzCSMVxImVk62-1" target="hCtdPsWrzCSMVxImVk62-6">
          <mxGeometry width="50" height="50" relative="1" as="geometry">
            <mxPoint x="70" y="210" as="sourcePoint" />
            <mxPoint x="220" y="205" as="targetPoint" />
          </mxGeometry>
        </mxCell>
        <mxCell id="hCtdPsWrzCSMVxImVk62-21" value="" style="endArrow=classic;html=1;rounded=0;exitX=1;exitY=0.3333333333333333;exitDx=0;exitDy=0;exitPerimeter=0;entryX=0;entryY=0.5;entryDx=0;entryDy=0;" edge="1" parent="1" source="hCtdPsWrzCSMVxImVk62-1" target="hCtdPsWrzCSMVxImVk62-4">
          <mxGeometry width="50" height="50" relative="1" as="geometry">
            <mxPoint x="80" y="220" as="sourcePoint" />
            <mxPoint x="230" y="215" as="targetPoint" />
          </mxGeometry>
        </mxCell>
        <mxCell id="hCtdPsWrzCSMVxImVk62-22" value="" style="endArrow=classic;html=1;rounded=0;exitX=1;exitY=0.3333333333333333;exitDx=0;exitDy=0;exitPerimeter=0;entryX=0;entryY=0.5;entryDx=0;entryDy=0;" edge="1" parent="1" source="hCtdPsWrzCSMVxImVk62-1" target="hCtdPsWrzCSMVxImVk62-5">
          <mxGeometry width="50" height="50" relative="1" as="geometry">
            <mxPoint x="90" y="230" as="sourcePoint" />
            <mxPoint x="170" y="500" as="targetPoint" />
          </mxGeometry>
        </mxCell>
        <mxCell id="hCtdPsWrzCSMVxImVk62-25" value="" style="endArrow=classic;html=1;rounded=0;exitX=0;exitY=0.3333333333333333;exitDx=0;exitDy=0;exitPerimeter=0;entryX=1;entryY=0.5;entryDx=0;entryDy=0;" edge="1" parent="1" source="hCtdPsWrzCSMVxImVk62-10" target="hCtdPsWrzCSMVxImVk62-5">
          <mxGeometry width="50" height="50" relative="1" as="geometry">
            <mxPoint x="580" y="370" as="sourcePoint" />
            <mxPoint x="630" y="320" as="targetPoint" />
          </mxGeometry>
        </mxCell>
        <mxCell id="hCtdPsWrzCSMVxImVk62-26" value="" style="endArrow=classic;html=1;rounded=0;exitX=0;exitY=0.3333333333333333;exitDx=0;exitDy=0;exitPerimeter=0;entryX=1;entryY=0.5;entryDx=0;entryDy=0;" edge="1" parent="1" source="hCtdPsWrzCSMVxImVk62-10" target="hCtdPsWrzCSMVxImVk62-3">
          <mxGeometry width="50" height="50" relative="1" as="geometry">
            <mxPoint x="710" y="257" as="sourcePoint" />
            <mxPoint x="440" y="731" as="targetPoint" />
          </mxGeometry>
        </mxCell>
        <mxCell id="hCtdPsWrzCSMVxImVk62-28" value="&lt;div&gt;CRUD carrinho&lt;/div&gt;" style="ellipse;whiteSpace=wrap;html=1;" vertex="1" parent="1">
          <mxGeometry x="319" y="393" width="120" height="50" as="geometry" />
        </mxCell>
        <mxCell id="hCtdPsWrzCSMVxImVk62-34" value="" style="endArrow=classic;html=1;rounded=0;exitX=1;exitY=0.3333333333333333;exitDx=0;exitDy=0;exitPerimeter=0;entryX=0;entryY=0.5;entryDx=0;entryDy=0;" edge="1" parent="1" source="hCtdPsWrzCSMVxImVk62-1" target="hCtdPsWrzCSMVxImVk62-28">
          <mxGeometry width="50" height="50" relative="1" as="geometry">
            <mxPoint x="70" y="345" as="sourcePoint" />
            <mxPoint x="315" y="393" as="targetPoint" />
          </mxGeometry>
        </mxCell>
      </root>
    </mxGraphModel>
  </diagram>
</mxfile>
